HIERARCHY
ROOT Hips
{
    OFFSET 0.000000 0.000000 0.000000
    CHANNELS 6 Xposition Yposition Zposition Zrotation Xrotation Yrotation
    JOINT Spine
    {
        OFFSET -0.000000 8.104110 0.000000
        CHANNELS 3 Zrotation Xrotation Yrotation
        JOINT Spine1
        {
            OFFSET -0.000000 22.417536 0.000000
            CHANNELS 3 Zrotation Xrotation Yrotation
            JOINT Neck
            {
                OFFSET -0.000000 22.325472 2.029588
                CHANNELS 3 Zrotation Xrotation Yrotation
                JOINT Head
                {
                    OFFSET -0.000000 13.836284 -1.976612
                    CHANNELS 3 Zrotation Xrotation Yrotation
                    End Site
                    {
                        OFFSET -0.000000 24.707651 0.000000
                    }
                }
            }
            JOINT LeftShoulder
            {
                OFFSET 3.973640 20.379602 -0.279950
                CHANNELS 3 Zrotation Xrotation Yrotation
                JOINT LeftArm
                {
                    OFFSET 11.493720 0.000000 0.000000
                    CHANNELS 3 Zrotation Xrotation Yrotation
                    JOINT LeftForeArm
                    {
                        OFFSET 31.336695 0.000000 0.000000
                        CHANNELS 3 Zrotation Xrotation Yrotation
                        JOINT LeftHand
                        {
                            OFFSET 29.043781 0.000000 0.000000
                            CHANNELS 3 Zrotation Xrotation Yrotation
                            End Site
                            {
                                OFFSET 14.824592 0.000000 0.000000
                            }
                        }
                    }
                }
            }
            JOINT RightShoulder
            {
                OFFSET -3.921018 20.379602 -0.279950
                CHANNELS 3 Zrotation Xrotation Yrotation
                JOINT RightArm
                {
                    OFFSET -11.493720 0.000000 0.000000
                    CHANNELS 3 Zrotation Xrotation Yrotation
                    JOINT RightForeArm
                    {
                        OFFSET -31.336695 0.000000 0.000000
                        CHANNELS 3 Zrotation Xrotation Yrotation
                        JOINT RightHand
                        {
                            OFFSET -29.043781 0.000000 0.000000
                            CHANNELS 3 Zrotation Xrotation Yrotation
                            End Site
                            {
                                OFFSET -14.824592 0.000000 0.000000
                            }
                        }
                    }
                }
            }
        }
    }
    JOINT LeftUpLeg
    {
        OFFSET 9.883060 0.000000 0.000000
        CHANNELS 3 Zrotation Xrotation Yrotation
        JOINT LeftLeg
        {
            OFFSET -0.000000 -43.587502 0.000000
            CHANNELS 3 Zrotation Xrotation Yrotation
            JOINT LeftFoot
            {
                OFFSET -0.000000 -41.501083 0.000000
                CHANNELS 3 Zrotation Xrotation Yrotation
                JOINT LeftToeBase
                {
                    OFFSET -0.000000 -6.423989 14.824592
                    CHANNELS 3 Zrotation Xrotation Yrotation
                    End Site
                    {
                        OFFSET -0.000000 0.000000 3.953224
                    }
                }
            }
        }
    }
    JOINT RightUpLeg
    {
        OFFSET -9.883060 0.000000 0.000000
        CHANNELS 3 Zrotation Xrotation Yrotation
        JOINT RightLeg
        {
            OFFSET -0.000000 -43.587502 0.000000
            CHANNELS 3 Zrotation Xrotation Yrotation
            JOINT RightFoot
            {
                OFFSET -0.000000 -41.501083 0.000000
                CHANNELS 3 Zrotation Xrotation Yrotation
                JOINT RightToeBase
                {
                    OFFSET -0.000000 -6.423989 14.824592
                    CHANNELS 3 Zrotation Xrotation Yrotation
                    End Site
                    {
                        OFFSET -0.000000 0.000000 3.953224
                    }
                }
            }
        }
    }
}
MOTION
Frames:    8
Frame Time:    0.008333
-9.991150    93.699486    250.018982    -0.341353    5.080956    -176.893112    -1.391778    -6.316909    0.461526    0.689148    5.373354    0.506067    -0.134445    17.757767    -1.650631    1.649645    5.801469    -1.567305    15.879426    -0.308741    -4.722335    -14.667983    0.863947    2.150194    -0.964869    0.803364    0.380376    3.379282    0.678355    -4.343920    -16.125179    -0.273036    -4.054968    11.999722    2.257948    3.966428    0.542718    0.718122    0.198941    4.709843    0.947063    5.586977    -2.408134    12.731481    13.781402    -1.687676    -0.902672    -17.690350    1.031289    -6.469066    1.608734    0.000000    0.000000    0.000000    -0.796343    14.924154    -1.869021    4.966566    -4.001047    0.520277    -5.224116    -7.235384    -3.246898    0.000000    0.000000    0.000000    
-9.987530    93.701103    250.020782    -0.342801    5.081227    -176.892868    -1.391888    -6.320498    0.464287    0.680765    5.374793    0.509214    -0.137430    17.816326    -1.640147    1.681368    5.749008    -1.552847    15.892493    -0.310841    -4.734759    -14.678638    0.860616    2.152931    -0.958155    0.806717    0.380350    3.371059    0.681296    -4.369069    -16.111843    -0.278542    -4.056599    11.984566    2.231964    3.964972    0.542091    0.724612    0.207223    4.733797    0.955075    5.595276    -2.411532    12.732956    13.778674    -1.676850    -0.900684    -17.743116    1.016300    -6.478518    1.675689    0.000000    0.000000    0.000000    -0.795290    14.925016    -1.869278    4.961324    -4.004561    0.520607    -5.211956    -7.226504    -3.233491    0.000000    0.000000    0.000000    
-9.981097    93.701500    250.022842    -0.345421    5.084943    -176.896072    -1.397965    -6.323094    0.461561    0.686352    5.383764    0.506573    -0.157177    17.822237    -1.628790    1.694240    5.766376    -1.540360    15.887567    -0.306515    -4.730119    -14.912864    1.570503    2.146436    -0.522053    0.432566    0.384129    3.136937    0.315143    -4.355083    -16.130135    -0.284558    -4.053308    11.990139    2.225281    3.974965    0.540827    0.719360    0.216328    4.736216    0.950007    5.596852    -2.409906    12.734297    13.789262    -1.679703    -0.902976    -17.690201    1.002966    -6.469749    1.615328    0.000000    0.000000    0.000000    -0.797925    14.934058    -1.870056    4.966884    -4.017694    0.522581    -5.210551    -7.226074    -3.231475    0.000000    0.000000    0.000000    
-9.976167    93.703163    250.026352    -0.345353    5.083877    -176.902740    -1.399691    -6.324469    0.461632    0.688038    5.378016    0.506575    -0.151025    17.846682    -1.618220    1.684095    5.773165    -1.530315    15.882718    -0.301207    -4.737774    -14.796281    1.232906    2.156428    -0.740875    0.608805    0.380827    3.273467    0.486349    -4.369827    -16.113480    -0.275082    -4.047958    11.959133    2.288901    3.986085    0.525837    0.678938    0.225375    4.779895    0.912639    5.619963    -2.407365    12.731952    13.802181    -1.682322    -0.897540    -17.733921    1.005635    -6.465370    1.658059    0.000000    0.000000    0.000000    -0.796976    14.928965    -1.869542    4.964263    -4.020558    0.522899    -5.200767    -7.204948    -3.231654    0.000000    0.000000    0.000000    
-9.970679    93.703613    250.028473    -0.343065    5.086164    -176.907059    -1.400524    -6.328301    0.464435    0.692934    5.381068    0.509233    -0.147973    17.881489    -1.609521    1.675226    5.748210    -1.521715    15.885619    -0.294977    -4.749513    -14.684834    0.877432    2.166065    -0.958249    0.766009    0.364626    3.367771    0.640565    -4.368730    -16.115112    -0.268302    -4.046464    11.953745    2.266384    3.998934    0.514020    0.693022    0.217749    4.769576    0.926599    5.627017    -2.403008    12.731873    13.810513    -1.679121    -0.891205    -17.819422    1.039105    -6.487039    1.736965    0.000000    0.000000    0.000000    -0.797483    14.931540    -1.869799    4.975149    -4.020504    0.523213    -5.196051    -7.212113    -3.218130    0.000000    0.000000    0.000000    
-9.964726    93.702141    250.029755    -0.346271    5.083084    -176.910522    -1.399966    -6.342557    0.461302    0.685650    5.393412    0.506582    -0.134810    17.901442    -1.602295    1.640295    5.739779    -1.517196    15.885913    -0.300484    -4.747736    -14.916530    1.553067    2.162642    -0.526469    0.406539    0.384634    3.113408    0.289718    -4.365475    -16.129404    -0.298165    -4.040335    11.963625    2.298204    4.008100    0.503359    0.689184    0.220333    4.773769    0.922866    5.624353    -2.406988    12.724680    13.813559    -1.676658    -0.894592    -17.721632    1.007571    -6.465600    1.631320    0.000000    0.000000    0.000000    -0.797225    14.932836    -1.869999    4.967834    -4.028424    0.524089    -5.190718    -7.214694    -3.207174    0.000000    0.000000    0.000000    
-9.962394    93.703148    250.035004    -0.351389    5.080030    -176.911331    -1.402072    -6.348414    0.459841    0.682133    5.398935    0.505429    -0.124890    17.934423    -1.599539    1.630251    5.700170    -1.514542    15.888359    -0.294212    -4.740631    -14.816932    1.255487    2.152777    -0.717935    0.554585    0.384587    3.198706    0.434976    -4.371512    -16.124863    -0.301274    -4.032932    11.946280    2.328720    4.006626    0.500820    0.667370    0.238025    4.757654    0.900025    5.620380    -2.413687    12.716553    13.811600    -1.670192    -0.894370    -17.717911    0.984311    -6.450737    1.644897    0.000000    0.000000    0.000000    -0.806810    14.927073    -1.867926    4.978345    -4.030333    0.524663    -5.192641    -7.208682    -3.215111    0.000000    0.000000    0.000000    
-9.957762    93.703285    250.037125    -0.358808    5.084265    -176.914703    -1.414150    -6.347249    0.461094    0.688183    5.399054    0.507071    -0.128481    17.958912    -1.586202    1.636378    5.688094    -1.499994    15.892142    -0.292883    -4.745181    -14.692926    0.846606    2.157478    -0.959544    0.757912    0.368577    3.308776    0.635434    -4.345562    -16.122179    -0.294239    -4.036689    11.932430    2.287975    4.027981    0.502070    0.683221    0.228688    4.748785    0.916450    5.644841    -2.421530    12.716682    13.815101    -1.664306    -0.891716    -17.662825    0.961677    -6.470784    1.597530    0.000000    0.000000    0.000000    -0.812721    14.927575    -1.867162    4.981775    -4.026695    0.524263    -5.193842    -7.220591    -3.207786    0.000000    0.000000    0.000000    
